<?xml version="1.0" standalone="no"?><!DOCTYPE svg PUBLIC "-//W3C//DTD SVG 1.1//EN" "http://www.w3.org/Graphics/SVG/1.1/DTD/svg11.dtd"><svg class="icon" width="16px" height="3.22px" viewBox="0 0 5083 1024" version="1.1" xmlns="http://www.w3.org/2000/svg"><path fill="#1c25e6" d="M1030.094374 804.312314l-31.052288 64.716452H740.9018l31.052288-64.716452H425.735582l-33.519059 69.795097H71.971659L0 1024h346.218506l33.51906-69.940201h275.697888l-31.197393 64.861556h346.218507l31.197393-64.861556h302.68726l71.97166-149.747485H1030.094374zM2771.344197 760.055548h-161.791129l-35.695621 76.034575-34.970101-76.034575h-217.946436l121.452175 263.944452h217.801332l-52.382599-114.196968h93.156866l70.375513-149.747484zM3206.801757 308.491427l130.883945-277.294034h-228.829247l-130.883945 277.294034H3206.801757zM3349.729347 308.491427l-270.038827 557.054839H3308.374663v-1.160833h561.553068l55.284682-114.777384h-275.697888l31.052288-64.426244h188.635398l55.284681-114.63228h-188.635397l30.907184-62.684993h158.743943l55.429786-114.63228h-158.598838l40.91937-84.595721h160.920505l55.284682-114.63228h-199.228001l79.081763-162.661754H3724.823579l-79.081762 162.661754h-101.572907l76.760097-162.661754h-228.248831l-130.593737 277.294034z m228.829247 0h55.865099l-40.919371 84.595721h-55.865099zM3482.499646 507.864532h56.155307l-30.471872 62.830097h-56.155307z m-87.062491 177.317273h56.300411l-31.197393 64.426244h-56.300411zM4349.932266 525.567238h-228.829248l-127.981862 275.988097h228.684144l128.126966-275.988097zM4717.626187 491.03245L4522.896415 909.222616H3003.655944l128.707383-272.650702h-33.519059l142.782486-302.68726h-305.589344l-55.284682 114.63228h77.920929l-128.562278 272.650701h33.373955l-142.782486 302.832365h2097.190308l52.09239-114.777384h-118.259884l194.584668-418.190166h-228.684143zM4715.014312 234.343205h284.549242l84.015304-114.777384h-314.440697l41.644891-88.368428h-228.829247l-147.716027 313.86028h-58.767181l113.616551-245.080912H4260.2579l-113.616551 245.080912h-65.151764l-55.284682 114.63228h416.303812l-178.478107 376.255066h228.829247l178.478107-376.255066h288.612158l55.429786-114.63228h-352.31288l51.947286-110.714468zM2153.20051 345.057673l147.861131-313.86028H696.499929L711.010344 0H365.662463l-86.046762 177.027065h217.656228l-93.737283 198.937793h-126.675924l-55.284682 114.777384h127.836758l-68.634264 145.104152H129.287799L74.003117 751.204194h1338.005385l55.284682-114.63228h-174.124982l68.634264-145.104151h96.349157l55.429786-114.777385h-98.090407L1523.593595 145.829673h237.390393L1348.162675 1024h228.684144l413.11152-878.170327h29.020831L1795.083463 619.594729h48.754995l-147.861131 313.86028h228.829248l277.294034-588.397336z m-1610.656086 291.514241h-32.938643l68.634264-145.104151h32.213122z m90.399887-261.187473L740.031175 145.829673h32.358226L664.577016 375.964858z m170.642482 261.187473h-32.938642l68.634264-145.104151h32.358225z m90.544991-261.187473L1001.218648 145.829673h32.213122l-107.812385 230.135185z m170.642483 261.187473H1031.69052l68.634264-145.104151h32.358226z m122.613008-261.187473h-32.938642L1262.406122 145.829673h32.213121zM2303.81862 720.877427h374.513816L3003.655944 31.197393h-657.902224V145.104152l-413.256625 878.895848h368.564546l44.692079-114.777384h-130.593737z m270.619243-575.047754h145.104152L2638.864107 319.229134h-145.104152z m-135.237069 287.596429h145.104151l-81.258325 172.819045h-145.104152z" /></svg>