<?xml version="1.0" standalone="no"?><!DOCTYPE svg PUBLIC "-//W3C//DTD SVG 1.1//EN" "http://www.w3.org/Graphics/SVG/1.1/DTD/svg11.dtd"><svg t="1649747637471" class="icon" viewBox="0 0 2209 1024" version="1.1" xmlns="http://www.w3.org/2000/svg" p-id="3406" xmlns:xlink="http://www.w3.org/1999/xlink" width="34.515625" height="16"><defs><style type="text/css">@font-face { font-family: feedback-iconfont; src: url("//at.alicdn.com/t/font_1031158_u69w8yhxdu.woff2?t=1630033759944") format("woff2"), url("//at.alicdn.com/t/font_1031158_u69w8yhxdu.woff?t=1630033759944") format("woff"), url("//at.alicdn.com/t/font_1031158_u69w8yhxdu.ttf?t=1630033759944") format("truetype"); }
</style></defs><path d="M512.430057 1023.998512a511.868207 511.868207 0 1 1 361.36875-873.874667L1170.758892 446.446221l-131.580739 131.793309-296.322375-296.534946a325.869585 325.869585 0 1 0 0 461.064012l122.652805-122.652805 131.580739 131.580739-122.652805 122.652805a510.167648 510.167648 0 0 1-362.00646 149.649177z" p-id="3407" fill="#0421f4"></path><path d="M1697.506989 1023.998512a510.167648 510.167648 0 0 1-361.368751-148.798897L1039.178153 578.02696 1170.758892 446.446221 1467.293838 742.768596a325.869585 325.869585 0 1 0 460.638872-461.064012 333.73467 333.73467 0 0 0-460.851442 0l-127.541912 127.541912-131.580739-131.793309 127.541912-127.541912a512.080777 512.080777 0 0 1 874.087236 361.368751 511.655637 511.655637 0 0 1-512.080776 512.718486z" p-id="3408" fill="#0421f4"></path></svg>